<svg width="948" height="84" viewBox="0 0 948 84" fill="none" xmlns="http://www.w3.org/2000/svg">
<path d="M359.007 47.4121L372.332 33.9981L354.288 29.1775L359.007 47.4121Z" fill="white"/>
<path d="M762.152 37.0721L735.017 2.34959H719.749V82.0647H736.752V29.1076L762.222 61.5944L787.692 28.898V82.0647H804.695V2.34959H789.635L762.152 37.0721ZM665.409 68.4411C655.762 68.4411 647.85 60.4766 647.85 49.6477V2.34959H630.847V49.6477C630.847 69 645.56 83.8113 665.339 83.8113C685.118 83.8113 699.831 69 699.831 49.6477V2.34959H682.828V49.6477C682.967 60.4766 675.055 68.4411 665.409 68.4411ZM596.355 28.5487C596.355 34.2775 591.844 38.8187 585.598 38.8187H568.04V17.7197H585.598C591.844 17.7197 596.355 22.2609 596.355 28.5487ZM551.107 82.1345H568.11V54.1888H582.822L598.09 82.0647H616.204L599.201 51.8833C599.201 51.8833 613.359 45.5955 613.359 28.5487C613.359 13.9471 602.046 2.34959 586.223 2.34959H551.176V82.1345H551.107ZM449.227 42.2421C449.227 65.0178 467.896 83.8113 492.255 83.8113C516.615 83.8113 535.283 65.0178 535.283 42.2421C535.283 19.4663 516.615 0.672852 492.255 0.672852C467.965 0.672852 449.227 19.4663 449.227 42.2421ZM466.785 42.2421C466.785 27.4308 478.098 16.043 492.255 16.043C506.413 16.043 517.725 27.4308 517.725 42.2421C517.725 57.0533 506.413 68.4411 492.255 68.4411C478.098 68.4411 466.785 57.0533 466.785 42.2421ZM383.089 2.34959V82.0647H400.092V50.7655H432.363V35.3954H400.092V17.7197H441.385V2.34959H383.089ZM370.042 82.1345V66.7644H333.26V2.34959H316.256V82.0647H370.042V82.1345ZM280.099 63.2712L286.9 82.0647H305.014L273.853 2.34959H255.74L224.648 82.0647H242.762L249.563 63.2712H280.099ZM274.408 48.46H255.184L264.831 22.2609L274.408 48.46ZM183.91 38.8187V51.3244H198.068V62.1534C198.068 62.1534 192.377 68.4411 180.51 68.4411C165.797 68.4411 154.485 57.0533 154.485 42.2421C154.485 27.4308 165.797 16.043 180.51 16.043C195.223 16.043 202.579 27.4308 202.579 27.4308L213.336 16.6019C213.336 16.6019 202.579 0.672852 180.51 0.672852C156.15 0.672852 137.482 19.4663 137.482 42.2421C137.482 65.0178 156.15 83.8113 180.51 83.8113C203.134 83.8113 215.002 68.4411 215.002 68.4411V38.8187H183.91ZM83.766 66.6945V49.0887H116.037V33.7186H83.766V17.7197H125.059V2.34959H66.7629V82.0647H126.169V66.6945H83.766ZM53.7851 82.1345V66.7644H17.003V2.34959H0V82.0647H53.7851V82.1345Z" fill="white"/>
<path d="M845.078 28.4568C845.078 20.8919 850.837 15.0945 858.948 15.0945C867.06 15.0945 872.819 20.8919 872.819 28.4568C872.819 36.0217 867.06 41.8191 858.948 41.8191C850.837 41.8191 845.078 36.0217 845.078 28.4568ZM856.034 56.949C858 56.949 859.51 56.3834 859.51 56.3834L842.198 83.1434H860.107L882.616 48.2529C882.616 48.2529 889.534 39.5214 889.534 28.4922C889.534 12.7967 876.822 0 858.913 0C841.004 0 828.293 12.7967 828.293 28.4922C828.328 43.5513 841.601 56.949 856.034 56.949Z" fill="white"/>
<path d="M935.113 40.2999L939.397 34.6439V40.2999H935.113ZM945.682 26.6901H939.081L928.827 40.3353V45.9913H939.397V50.304H945.682V45.9913H948V40.3353H945.682V26.6901ZM908.776 49.9505H917.028L945.753 3.39444H937.501L908.776 49.9505ZM917.59 14.3883C917.59 14.3883 920.575 13.045 920.575 9.72211C920.575 6.3992 917.274 3.07629 912.042 3.07629C906.353 3.07629 903.72 7.07085 903.72 7.07085L907.02 10.7119C907.02 10.7119 908.987 8.3788 911.305 8.3788C913.271 8.3788 913.938 9.19186 913.938 10.3584C913.938 11.3482 913.271 12.0199 911.305 12.0199H908.987V17.0042H911.305C913.938 17.0042 914.921 17.994 914.921 19.6555C914.921 20.9988 913.938 21.9886 911.761 21.9886C908.32 21.9886 906.669 19.3373 906.669 19.3373L903.052 22.9784C903.052 22.9784 905.37 27.2911 912.288 27.2911C917.906 27.2911 921.207 23.9682 921.207 19.9736C921.207 15.6963 917.59 14.3883 917.59 14.3883Z" fill="white"/>
</svg>
