<svg width="154" height="47" viewBox="0 0 154 47" fill="none" xmlns="http://www.w3.org/2000/svg">
<path d="M0.554866 29.755C0.554866 21.0345 7.56947 13.9417 16.1939 13.9417C24.8183 13.9417 31.8329 21.0345 31.8329 29.755C31.8329 38.4755 24.8183 45.5683 16.1939 45.5683C7.56947 45.5683 0.554866 38.4755 0.554866 29.755ZM0 29.755C0 38.7872 7.26121 46.1363 16.1939 46.1363C25.1265 46.1363 32.3946 38.7941 32.3946 29.7619C32.3946 20.7297 25.1265 13.3806 16.1939 13.3806C7.26121 13.3806 0 20.7297 0 29.755Z" fill="white"/>
<path d="M26.4949 28.0919C26.3716 28.1958 26.2415 28.2997 26.0976 28.4105C25.2002 29.1101 23.7891 29.6642 21.8299 30.1907C17.7609 31.2989 14.8085 31.4582 11.4519 32.2894C10.8011 32.4487 10.1161 32.6704 9.47905 32.9336C10.1093 33.2522 10.7874 33.55 11.4793 33.8132C12.8356 33.4184 13.5001 33.2383 15.473 32.8989C16.2265 32.7673 18.5419 32.3587 20.2201 31.9985C23.2479 31.3543 27.68 29.9413 26.4949 28.0919ZM24.5495 24.2477C23.9056 23.9568 23.0972 23.6658 22.2478 23.4373C21.8642 23.749 21.4189 24.0191 20.7887 24.2685C21.8573 24.4624 22.652 24.7602 23.5493 25.0165C23.7069 25.0996 24.433 24.407 24.5495 24.2477ZM9.7325 28.3343C13.6851 27.1637 17.8294 26.8036 22.0286 25.6745C20.3914 25.2243 19.4872 25.0373 17.7541 25.2382C15.2332 25.536 12.4657 26.0901 10.0956 26.8036C9.16394 27.0876 4.2729 28.4867 5.68404 30.4469C5.68404 30.4746 6.51976 29.2833 9.7325 28.3343ZM7.00613 35.0739C6.99928 35.434 7.21848 35.7665 7.698 36.1613C7.75965 35.9605 7.8487 35.815 7.9857 35.628C7.6569 35.4618 7.32809 35.2747 7.00613 35.0739ZM8.86253 34.8938C9.15709 34.7137 9.5133 34.5405 9.92431 34.3743C9.36259 34.1388 8.78718 33.8825 8.19806 33.6124C7.9309 33.7786 7.698 33.9587 7.50619 34.1388C7.9583 34.3881 8.40357 34.6513 8.86253 34.8938ZM24.0494 26.4018C23.2548 26.7759 22.1108 27.1637 20.4736 27.5793C19.1378 27.9187 15.8566 28.3897 12.3493 29.1655C11.2327 29.408 8.21861 30.1283 6.73897 31.4028C7.14998 31.7353 7.40344 31.8184 7.86925 32.0816C8.48577 31.6868 9.31464 31.3058 10.5545 30.9733C12.7123 30.3915 14.3221 30.1352 16.2607 29.8305C18.1925 29.5257 21.8094 28.7638 23.8165 28.0296C24.4673 27.7941 25.0769 27.4824 25.529 27.1291C25.3852 26.9698 24.0974 26.3464 24.0494 26.4018ZM25.2208 25.6745C25.6112 25.8685 25.9675 26.0139 26.31 26.2633C26.5566 25.7854 26.4059 25.4737 25.8853 25.0373C25.6935 25.2728 25.4605 25.4806 25.2208 25.6745ZM6.81432 32.892C6.46496 32.6981 6.2252 32.5595 5.93065 32.3517C5.77309 32.6981 6.06765 33.0859 6.38961 33.273C6.51976 33.1275 6.67732 33.0167 6.81432 32.892ZM23.6315 21.8649C23.563 22.1351 23.2753 22.4468 23.0767 22.6615C23.6726 22.8208 24.2686 23.0355 24.844 23.2641C24.7755 22.7308 24.159 22.2113 23.6315 21.8649ZM5.04012 25.2659C9.17764 22.523 13.7604 20.9229 21.5217 22.2736C21.9532 22.0243 22.1862 21.7887 22.2958 21.2693C20.3572 20.5627 18.261 20.3134 15.5415 20.3619C13.0959 20.4311 8.70497 21.3454 6.35536 22.7515L7.06778 21.8511C8.71182 20.8814 12.9863 19.5861 16.1922 19.5168C18.4528 19.4753 19.631 19.6 22.3163 20.3342C22.0834 19.8701 21.5217 19.6346 20.7134 19.2675C18.1103 18.09 13.2535 17.9791 9.26669 19.7523C9.7736 19.4199 10.2668 19.1082 10.9107 18.8103C12.226 18.2077 14.3701 17.619 17.0554 17.6605C19.1995 17.6952 21.7477 18.4502 23.3096 20.0156C23.5699 20.3272 23.7206 20.6528 23.7822 20.916C25.0221 21.5463 25.7346 22.142 26.1387 22.8416C26.3031 23.1948 26.3716 23.5897 26.2963 24.026C26.81 24.3377 27.0566 24.594 27.3101 24.9473C27.4951 25.2312 27.6321 25.5568 27.6663 25.8546C27.7211 26.2494 27.7622 26.6858 27.358 27.1984C27.7828 27.4062 28.1184 27.9949 28.1664 28.2581C28.3582 29.2002 27.7622 30.1214 26.9744 30.8279C26.0634 31.6383 24.0631 32.5942 22.4259 33.0098C19.1789 33.834 16.3155 34.1873 14.0344 34.6098C15.0483 34.8522 16.4457 35.1916 18.7131 35.1916C23.5493 35.1916 27.8307 32.8782 27.8307 32.8782C27.8307 32.8782 27.7348 33.1829 27.6389 33.4461C24.57 35.3232 19.6721 36.1198 17.5897 36.0228C15.4661 35.9258 13.6851 35.6072 11.9383 35.06C11.404 35.2055 10.8765 35.3717 10.3696 35.6003C13.0274 36.8194 15.0346 37.0964 17.3088 37.2627C19.6242 37.4358 23.4603 36.8748 26.7004 35.6903C26.5497 35.8358 26.4744 36.0782 26.3237 36.2167C24.6659 37.0964 21.1586 37.983 19.3981 38.0523C17.6445 38.1215 15.5072 38.0592 13.6508 37.706C12.041 37.3943 10.7463 36.8817 9.37629 36.2722C9.12284 36.4522 8.99953 36.7016 8.95843 36.9579C14.2879 39.777 19.2885 39.8393 24.9673 38.0523L24.4467 38.5579C18.1925 41.1207 13.3015 40.1233 9.52015 38.2809C9.39684 38.2254 9.24614 38.1631 9.13654 38.0938C9.4859 38.7103 12.3767 40.8437 15.61 41.1138C17.8363 41.3008 20.5558 40.9129 22.1725 40.2619L21.2271 40.7606C20.4394 41.1484 18.3774 42.0281 15.473 41.8342C11.6163 41.571 9.4448 39.8463 8.47207 38.9458C8.01996 38.5233 7.8076 38.0315 7.6706 37.4358C6.80062 36.9717 6.25261 36.4938 5.80049 35.7804C5.53334 35.3579 5.58814 34.8869 5.65664 34.492C5.67719 34.3674 5.71144 34.2496 5.75939 34.1388C5.34153 33.834 4.91682 33.5015 4.73186 33.1691C4.34825 32.4764 4.58801 31.8738 4.84832 31.4097C4.61541 31.1465 4.4099 30.8833 4.314 30.6201C4.21125 30.2945 4.19755 29.9967 4.22495 29.6573C4.29345 29.0685 4.60856 28.5352 5.00587 28.0711C5.84844 27.0876 7.17053 26.3256 9.4448 25.5637C11.6643 24.8226 12.5616 24.7118 14.2331 24.3169C16.1854 23.8529 18.5282 23.7143 20.4873 23.0147C15.0277 22.045 9.35574 22.9247 4.73871 26.1455L5.04012 25.2659Z" fill="white"/>
<path d="M52.7865 26.9011L53.4099 31.2787H52.1632L52.7865 26.9011ZM47.8955 36.903H51.2384L51.6426 34.4303H53.9374L54.3415 36.903H57.6776L54.8622 22.572H50.7178L47.8955 36.903Z" fill="white"/>
<path d="M60.8226 28.1263C61.3501 28.1263 62.3365 27.78 62.3365 26.7272C62.3365 25.4804 61.2062 25.3903 60.8911 25.3903C60.5143 25.3903 59.7951 25.4527 59.0758 25.7921L59.0484 22.689C60.165 22.3981 60.9664 22.3149 61.9186 22.3149C64.6039 22.3149 65.8164 24.2197 65.8164 26.0761C65.8164 27.8908 64.7752 28.9921 63.7819 29.4147V29.5532C64.7341 29.858 66.0356 30.793 66.0356 32.9957C66.0356 35.697 64.1655 37.1932 61.7816 37.1932C60.4938 37.1862 59.6649 37.0061 58.6716 36.4451L58.7264 33.4667C59.6581 33.8684 60.2814 33.9031 60.9116 33.9031C61.9666 33.9031 62.3913 33.1204 62.3913 32.5385C62.3913 31.7281 61.8844 31.1948 60.7678 31.1948H59.4252V28.1263H60.8226Z" fill="white"/>
<path d="M67.5764 22.572H76.5502V36.903H73.2621V26.0214H70.8645V36.91L67.5764 36.903V22.572Z" fill="white"/>
<path d="M81.7221 25.7305H82.503C83.2497 25.7305 83.7155 26.1808 83.7155 27.3721C83.7155 28.9237 82.9277 29.0276 82.503 29.0276H81.7221V25.7305ZM78.434 36.903L81.7289 36.91V32.1791H82.8318C86.0925 32.1791 87.0926 29.2215 87.0926 27.3444C87.0926 25.4881 85.9418 22.572 82.8318 22.572H78.434V36.903Z" fill="white"/>
<path d="M93.1844 33.6199C92.0268 33.6199 91.4239 32.2554 91.4239 29.7272C91.4239 27.199 92.0268 25.8345 93.1844 25.8345C94.3421 25.8345 94.9381 27.199 94.9381 29.7272C94.9381 32.2484 94.3421 33.6199 93.1844 33.6199ZM93.1844 37.0832C97.0822 37.0832 98.3974 33.4052 98.3974 29.7203C98.3974 26.0423 97.0822 22.3643 93.1844 22.3643C89.2867 22.3643 87.9714 26.0423 87.9714 29.7203C87.9714 33.4052 89.2867 37.0832 93.1844 37.0832Z" fill="white"/>
<path d="M115.946 34.042V30.7796H116.426C116.809 30.7796 117.851 30.8004 117.851 32.2757C117.851 33.7926 116.809 34.042 116.426 34.042H115.946ZM112.727 36.9026H116.659C117.508 36.9026 121.063 36.5494 121.077 32.2064C121.084 28.5423 118.316 27.9051 116.535 27.9051H115.953V26.0072H120.303V22.5647H112.727V36.9026Z" fill="white"/>
<path d="M132.915 22.572H136.134V27.7323H138.429V22.572H141.649V36.903H138.429V31.1748H136.134V36.903H132.915V22.572Z" fill="white"/>
<path d="M143.814 22.572H147.034L147.027 27.7323H147.725L149.575 22.572H153.069L150.561 29.3739L153.425 36.903H149.637L147.787 31.1471H147.027L147.034 36.903H143.814V22.572Z" fill="white"/>
<path d="M41.532 22.572H48.2726L48.2794 26.153H44.8817V36.91H41.532V22.572Z" fill="white"/>
<path d="M99.979 22.572H102.774L105.24 25.9522L107.72 22.572H110.508V36.91H107.22V28.1617L105.24 30.6761L103.267 28.1617V36.91H99.979V22.572Z" fill="white"/>
<path d="M126.606 26.929L127.229 31.2997H125.983L126.606 26.929ZM121.715 36.931H125.051L125.455 34.4513H127.75L128.154 36.931H131.49L128.668 22.593H124.523L121.715 36.931Z" fill="white"/>
<path d="M42.2787 42.8528L43.2308 41.4675L43.5528 41.7237L42.9705 42.6034L42.6828 42.8528L42.9705 43.0744L43.5939 43.9333L43.2788 44.1965L42.2787 42.8528ZM41.1758 42.8528L42.1417 41.4536L42.4636 41.7168L41.8745 42.5965L41.5868 42.8459L41.8745 43.0675L42.4979 43.9333L42.1759 44.2035L41.1758 42.8528Z" fill="white"/>
<path d="M46.6916 40.6221H44.9243V44.4386H44.4242V40.1719H46.6916V40.6221Z" fill="white"/>
<path d="M47.417 44.0583C47.5266 44.0583 47.6293 44.0445 47.7184 44.0098C47.8074 43.9752 47.8828 43.9406 47.9444 43.8921C48.0061 43.8436 48.0609 43.7951 48.102 43.7328C48.1431 43.6704 48.1773 43.6219 48.1979 43.5665V43.0609C48.1431 43.0609 48.0814 43.054 48.0266 43.054C47.9718 43.054 47.9102 43.054 47.8554 43.054C47.7321 43.054 47.6088 43.0609 47.4923 43.0747C47.3759 43.0886 47.2663 43.1163 47.1772 43.1509C47.0882 43.1925 47.0128 43.241 46.958 43.3102C46.9032 43.3795 46.8758 43.4626 46.8758 43.5596C46.8758 43.7051 46.9238 43.8159 47.0265 43.9129C47.1361 44.0098 47.2663 44.0583 47.417 44.0583ZM46.5607 41.6132C46.7114 41.5232 46.8895 41.4539 47.095 41.4054C47.3005 41.3639 47.5129 41.3362 47.7321 41.3362C47.9444 41.3362 48.1088 41.3639 48.239 41.4193C48.3623 41.4747 48.4651 41.5509 48.5267 41.6409C48.5952 41.731 48.6363 41.8349 48.6569 41.9457C48.6774 42.0565 48.6911 42.1674 48.6911 42.2782C48.6911 42.5206 48.6843 42.7561 48.6706 42.9916C48.6569 43.2202 48.65 43.4419 48.65 43.6497C48.65 43.802 48.6569 43.9406 48.6706 44.0791C48.6843 44.2107 48.7048 44.3354 48.7391 44.4531H48.3828L48.2527 44.0237H48.2253C48.191 44.0791 48.1431 44.1345 48.0883 44.1899C48.0335 44.2453 47.9718 44.2938 47.8896 44.3354C47.8143 44.3769 47.7252 44.4116 47.6225 44.4393C47.5197 44.467 47.4101 44.4808 47.28 44.4808C47.1498 44.4808 47.0334 44.4601 46.9238 44.4185C46.8141 44.3769 46.7182 44.3215 46.636 44.2453C46.5538 44.1691 46.4922 44.0791 46.4442 43.9752C46.3963 43.8713 46.3757 43.7535 46.3757 43.615C46.3757 43.4349 46.41 43.2895 46.4853 43.1648C46.5607 43.047 46.6566 42.9501 46.7868 42.8808C46.9169 42.8115 47.0745 42.7561 47.2594 42.7284C47.4444 42.7007 47.643 42.6799 47.8622 42.6799H48.0266C48.0814 42.6799 48.1362 42.6869 48.191 42.6938C48.2047 42.5691 48.2116 42.4652 48.2116 42.3613C48.2116 42.1397 48.1705 41.9804 48.0814 41.8903C47.9924 41.8003 47.8348 41.7587 47.6019 41.7587C47.5334 41.7587 47.4581 41.7656 47.3827 41.7726C47.3074 41.7864 47.2252 41.8003 47.143 41.8141C47.0608 41.8349 46.9854 41.8557 46.9101 41.8834C46.8347 41.9111 46.773 41.9388 46.7114 41.9734L46.5607 41.6132Z" fill="white"/>
<path d="M50.0332 43.0751V42.6803H50.4579C50.5264 42.6803 50.6017 42.6665 50.6702 42.6457C50.7387 42.6249 50.8004 42.5903 50.862 42.5418C50.9168 42.5002 50.9648 42.4518 50.999 42.3894C51.0333 42.3271 51.047 42.2717 51.047 42.2024C51.047 42.0431 50.9922 41.9323 50.8826 41.8699C50.773 41.8076 50.6086 41.773 50.3962 41.773C50.2387 41.773 50.0948 41.7937 49.9647 41.8422C49.8345 41.8907 49.7318 41.9323 49.6633 41.9808L49.5263 41.6067C49.6496 41.5375 49.7866 41.4751 49.951 41.4197C50.1154 41.3643 50.3072 41.3435 50.5332 41.3435C51.1977 41.3435 51.5334 41.5929 51.5334 42.0916C51.5334 42.237 51.4923 42.3756 51.3963 42.5072C51.3073 42.6457 51.1771 42.7427 51.0059 42.7981V42.8258C51.2456 42.8673 51.4101 42.9574 51.506 43.0821C51.6019 43.2068 51.6498 43.373 51.6498 43.5808C51.6498 43.7124 51.6224 43.8301 51.5745 43.941C51.5197 44.0518 51.4443 44.1488 51.3415 44.225C51.2388 44.3081 51.1086 44.3704 50.9442 44.4189C50.7867 44.4674 50.6017 44.4882 50.3894 44.4882C50.1839 44.4882 50.0126 44.4674 49.8825 44.4328C49.7455 44.3981 49.629 44.3496 49.5194 44.3011L49.6564 43.8994C49.7523 43.9548 49.8619 43.9895 49.9921 44.0241C50.1222 44.0518 50.2661 44.0656 50.4168 44.0656C50.6634 44.0656 50.8483 44.0241 50.9785 43.941C51.1086 43.8578 51.1703 43.7262 51.1703 43.5531C51.1703 43.4076 51.1086 43.2899 50.9922 43.2068C50.8757 43.1236 50.6702 43.0821 50.3962 43.0821H50.0332V43.0751Z" fill="white"/>
<path d="M54.3566 41.8139H53.0208V44.439H52.5413V41.3914H54.8361V44.439H54.3566V41.8139Z" fill="white"/>
<path d="M57.1105 41.7448C56.905 41.7448 56.7406 41.8002 56.6241 41.9041C56.5077 42.0149 56.4186 42.1742 56.3775 42.3959V43.9059C56.4529 43.9613 56.5282 44.0098 56.6241 44.0375C56.7132 44.0652 56.8365 44.079 56.994 44.079C57.268 44.079 57.4873 43.9751 57.6517 43.7673C57.8161 43.5595 57.8983 43.2478 57.8983 42.8461C57.8983 42.6799 57.8846 42.5275 57.8572 42.3959C57.8298 42.2573 57.7818 42.1396 57.7202 42.0496C57.6585 41.9526 57.5763 41.8764 57.4804 41.8279C57.3708 41.7656 57.2544 41.7448 57.1105 41.7448ZM55.8912 41.3915H56.22L56.309 41.7586H56.3296C56.4255 41.6132 56.5419 41.5093 56.6858 41.4331C56.8296 41.3569 57.0009 41.3223 57.1858 41.3223C57.59 41.3223 57.8846 41.44 58.0832 41.6824C58.2819 41.9249 58.3778 42.3128 58.3778 42.86C58.3778 43.1162 58.3435 43.3448 58.275 43.5526C58.2065 43.7604 58.1175 43.9336 57.9942 44.0721C57.8709 44.2176 57.727 44.3215 57.5558 44.4046C57.3845 44.4808 57.1927 44.5223 56.9872 44.5223C56.8365 44.5223 56.72 44.5154 56.631 44.4946C56.5419 44.4738 56.4529 44.4461 56.3501 44.3976V45.6652H55.8706V41.3915H55.8912Z" fill="white"/>
<path d="M59.6511 42.9154C59.6511 43.0678 59.6648 43.2201 59.699 43.3587C59.7264 43.5041 59.7744 43.6219 59.8429 43.7327C59.9045 43.8366 59.9936 43.9197 60.0963 43.989C60.1991 44.0513 60.3292 44.086 60.4731 44.086C61.0211 44.0929 61.2951 43.6981 61.2951 42.9154C61.2951 42.7561 61.2814 42.6106 61.2472 42.4651C61.2198 42.3197 61.1718 42.2019 61.1033 42.0911C61.0417 41.9872 60.9526 41.9041 60.8499 41.8348C60.7471 41.7725 60.6169 41.7379 60.4662 41.7379C59.9251 41.7379 59.6511 42.1257 59.6511 42.9154ZM59.151 42.9154C59.151 42.4028 59.2606 42.008 59.4935 41.7309C59.7264 41.4539 60.0484 41.3223 60.4731 41.3223C60.6991 41.3223 60.8978 41.3569 61.0622 41.4331C61.2266 41.5093 61.3705 41.6132 61.4732 41.7586C61.5828 41.8972 61.665 42.0703 61.713 42.2643C61.7678 42.4582 61.7883 42.6799 61.7883 42.9154C61.7883 43.4349 61.6719 43.8297 61.4458 44.0998C61.2198 44.3769 60.891 44.5085 60.4662 44.5085C60.2402 44.5085 60.0484 44.4738 59.8771 44.3976C59.7127 44.3215 59.5757 44.2176 59.4661 44.0721C59.3565 43.9336 59.2743 43.7604 59.2264 43.5665C59.1716 43.3725 59.151 43.1509 59.151 42.9154Z" fill="white"/>
<path d="M65.1793 42.6243L65.2135 42.0494H65.1861L64.9669 42.5135L64.2408 43.7117H64.0695L63.3091 42.5135L63.1105 42.0494H63.0899L63.1379 42.6174V44.439H62.6926V41.3914H63.1653L64.0079 42.7559L64.186 43.1091H64.1997L64.3778 42.742L65.1655 41.3914H65.6519V44.439H65.1793V42.6243Z" fill="white"/>
<path d="M67.0765 42.9219C67.0765 43.0743 67.0902 43.2267 67.1244 43.3652C67.1587 43.5107 67.2066 43.6353 67.2751 43.7392C67.3436 43.8501 67.4258 43.9332 67.5286 43.9955C67.6313 44.0579 67.7546 44.0856 67.8985 44.0856C68.1725 44.0856 68.378 43.9817 68.515 43.7808C68.652 43.5799 68.7137 43.2821 68.7137 42.8873C68.7137 42.7349 68.7 42.5894 68.6726 42.4578C68.6452 42.3262 68.5972 42.2154 68.5424 42.1184C68.4808 42.0215 68.4054 41.9522 68.3164 41.8968C68.2205 41.8483 68.1109 41.8206 67.9876 41.8206C67.6724 41.8206 67.4464 41.9106 67.3025 42.0976C67.145 42.2916 67.0765 42.5617 67.0765 42.9219ZM67.0217 41.9314C67.1518 41.7375 67.3025 41.5989 67.4601 41.5227C67.6176 41.4396 67.8231 41.405 68.0629 41.405C68.4328 41.405 68.7137 41.5227 68.9123 41.7721C69.111 42.0145 69.2137 42.3747 69.2137 42.8526C69.2137 43.3998 69.0973 43.8154 68.8644 44.0994C68.6315 44.3834 68.3095 44.5219 67.8985 44.5219C67.4532 44.5219 67.1244 44.3696 66.9052 44.0579C66.686 43.7462 66.5764 43.2613 66.5764 42.6033C66.5764 42.25 66.5901 41.9522 66.6244 41.7098C66.6586 41.4604 66.7066 41.2526 66.7751 41.0794C66.8436 40.9063 66.9189 40.7747 67.0148 40.6708C67.1107 40.5669 67.2135 40.4907 67.3368 40.4283C67.4532 40.3729 67.5834 40.3314 67.7272 40.3037C67.8711 40.2829 68.0218 40.2621 68.1794 40.2413C68.3917 40.2206 68.5493 40.1998 68.6726 40.1721C68.789 40.1444 68.8849 40.0959 68.9603 40.0266L69.0151 40.463C68.974 40.4976 68.9329 40.5322 68.8849 40.553C68.837 40.5738 68.7753 40.5946 68.7068 40.6154C68.6383 40.6292 68.5561 40.6431 68.4602 40.6569C68.3643 40.6708 68.2547 40.6777 68.1314 40.6846C67.9602 40.6985 67.8094 40.7193 67.6724 40.747C67.5423 40.7747 67.4327 40.837 67.3368 40.9271C67.2409 41.0171 67.1655 41.1349 67.1176 41.3011C67.0628 41.4604 67.0285 41.6751 67.008 41.9383H67.0217V41.9314Z" fill="white"/>
<path d="M70.9614 44.0583C71.071 44.0583 71.1738 44.0445 71.2628 44.0098C71.3519 43.9752 71.4272 43.9406 71.4889 43.8921C71.5505 43.8436 71.6053 43.7951 71.6464 43.7328C71.6875 43.6704 71.7218 43.6219 71.7423 43.5665V43.0609C71.6875 43.0609 71.6259 43.054 71.5711 43.054C71.5163 43.054 71.4546 43.054 71.3998 43.054C71.2765 43.054 71.1532 43.0609 71.0368 43.0747C70.9203 43.0886 70.8107 43.1163 70.7216 43.1509C70.6326 43.1925 70.5572 43.241 70.5024 43.3102C70.4476 43.3795 70.4202 43.4626 70.4202 43.5596C70.4202 43.7051 70.4682 43.8159 70.5709 43.9129C70.6737 44.0098 70.8038 44.0583 70.9614 44.0583ZM70.1051 41.6132C70.2558 41.5232 70.4339 41.4539 70.6394 41.4054C70.8449 41.3639 71.0573 41.3362 71.2765 41.3362C71.4889 41.3362 71.6533 41.3639 71.7834 41.4193C71.9067 41.4747 72.0095 41.5509 72.0711 41.6409C72.1396 41.731 72.1807 41.8349 72.2013 41.9457C72.2218 42.0565 72.2355 42.1674 72.2355 42.2782C72.2355 42.5206 72.2287 42.7561 72.215 42.9916C72.2013 43.2202 72.1944 43.4419 72.1944 43.6497C72.1944 43.802 72.2013 43.9406 72.215 44.0791C72.2287 44.2107 72.2492 44.3354 72.2835 44.4531H71.9273L71.7971 44.0237H71.7697C71.7355 44.0791 71.6875 44.1345 71.6327 44.1899C71.5779 44.2453 71.5163 44.2938 71.4341 44.3354C71.3587 44.3769 71.2697 44.4116 71.1669 44.4393C71.0642 44.467 70.9546 44.4808 70.8244 44.4808C70.6942 44.4808 70.5778 44.4601 70.4682 44.4185C70.3586 44.3769 70.2627 44.3215 70.1805 44.2453C70.0983 44.1691 70.0366 44.0791 69.9887 43.9752C69.9407 43.8713 69.9202 43.7535 69.9202 43.615C69.9202 43.4349 69.9544 43.2895 70.0298 43.1648C70.1051 43.047 70.201 42.9501 70.3312 42.8808C70.4613 42.8115 70.6189 42.7561 70.8038 42.7284C70.9888 42.7007 71.1875 42.6799 71.4067 42.6799H71.5711C71.6259 42.6799 71.6807 42.6869 71.7355 42.6938C71.7492 42.5691 71.756 42.4652 71.756 42.3613C71.756 42.1397 71.7149 41.9804 71.6259 41.8903C71.5368 41.8003 71.3793 41.7587 71.1464 41.7587C71.0779 41.7587 71.0025 41.7656 70.9272 41.7726C70.8518 41.7864 70.7696 41.8003 70.6874 41.8141C70.6052 41.8349 70.5298 41.8557 70.4545 41.8834C70.3791 41.9111 70.3175 41.9388 70.2558 41.9734L70.1051 41.6132Z" fill="white"/>
<path d="M75.1128 43.0884H73.7497V44.439H73.2701V41.3914H73.7497V42.6658H75.1128V41.3914H75.5923V44.439H75.1128V43.0884Z" fill="white"/>
<path d="M77.4086 43.0676H77.1346V44.439H76.6482V41.3914H77.1346V42.7697L77.388 42.6797L78.3539 41.3914H78.8814L77.9429 42.6174L77.6894 42.8182L78.0045 43.0607L79.0115 44.439H78.4155L77.4086 43.0676Z" fill="white"/>
<path d="M81.8732 42.7972L80.9073 44.2033L80.5854 43.9401L81.1745 43.0535L81.4622 42.8041L81.1745 42.5825L80.5443 41.7167L80.8662 41.4465L81.8732 42.7972ZM80.7772 42.7972L79.8113 44.1894L79.4962 43.9332L80.0716 43.0535L80.3662 42.8041L80.0716 42.5825L79.4551 41.7236L79.7702 41.4604L80.7772 42.7972Z" fill="white"/>
<path d="M85.0868 45.7763C84.9018 45.5823 84.7443 45.3676 84.6141 45.1321C84.484 44.8966 84.3812 44.6611 84.3059 44.4118C84.2305 44.1624 84.1689 43.92 84.1346 43.6637C84.1004 43.4143 84.0798 43.1788 84.0798 42.9503C84.0798 42.7286 84.1004 42.4931 84.1346 42.2438C84.1689 41.9944 84.2305 41.745 84.3127 41.4957C84.3949 41.2463 84.4977 41.0039 84.6278 40.7615C84.758 40.519 84.9155 40.2974 85.1073 40.0896L85.3951 40.3043C85.2375 40.5121 85.1005 40.7268 84.9909 40.9485C84.8813 41.1701 84.7991 41.3918 84.7374 41.6204C84.6758 41.8489 84.6278 42.0775 84.6004 42.2992C84.573 42.5277 84.5593 42.7425 84.5593 42.9503C84.5593 43.1442 84.573 43.3589 84.6073 43.5875C84.6347 43.8161 84.6826 44.0447 84.7511 44.2732C84.8196 44.5018 84.9018 44.7235 85.0114 44.9451C85.121 45.1668 85.2444 45.3607 85.3951 45.5408L85.0868 45.7763Z" fill="white"/>
<path d="M86.696 42.8113H87.929L87.4632 41.516L87.3125 40.8719H87.3056L87.1549 41.5299L86.696 42.8113ZM88.0797 43.2546H86.5316L86.1137 44.4391H85.6136L87.2097 40.103H87.4426L89.0456 44.4391H88.5181L88.0797 43.2546Z" fill="white"/>
<path d="M90.5189 43.0676H90.2449V44.439H89.7585V41.3914H90.2449V42.7697L90.4984 42.6797L91.4643 41.3914H91.9917L91.0532 42.6174L90.8066 42.8182L91.1149 43.0607L92.1219 44.439H91.5259L90.5189 43.0676Z" fill="white"/>
<path d="M95.5547 45.2079H95.2259L95.1369 44.439H92.842V41.3914H93.3284V44.0096H94.6368V41.3914H95.1163V44.0096H95.5547V45.2079Z" fill="white"/>
<path d="M98.1903 42.6312L98.2108 42.2572H98.1903L97.9437 42.6451L96.5874 44.439H96.3134V41.3914H96.7929V43.2477L96.7792 43.6078H96.7997L97.0326 43.2269L98.389 41.3914H98.6767V44.439H98.1903V42.6312Z" fill="white"/>
<path d="M100.082 42.9154C100.082 43.0678 100.096 43.2201 100.13 43.3587C100.158 43.5041 100.206 43.6219 100.274 43.7327C100.336 43.8366 100.425 43.9197 100.528 43.989C100.63 44.0513 100.761 44.086 100.904 44.086C101.453 44.0929 101.727 43.6981 101.727 42.9154C101.727 42.7561 101.713 42.6106 101.679 42.4651C101.651 42.3197 101.603 42.2019 101.535 42.0911C101.473 41.9872 101.384 41.9041 101.281 41.8348C101.178 41.7725 101.048 41.7379 100.898 41.7379C100.356 41.7379 100.082 42.1257 100.082 42.9154ZM99.5824 42.9154C99.5824 42.4028 99.6989 42.008 99.9249 41.7309C100.151 41.4539 100.48 41.3223 100.904 41.3223C101.131 41.3223 101.329 41.3569 101.494 41.4331C101.658 41.5093 101.795 41.6132 101.905 41.7586C102.014 41.8972 102.096 42.0703 102.144 42.2643C102.199 42.4582 102.22 42.6799 102.22 42.9154C102.22 43.4349 102.103 43.8297 101.877 44.0998C101.651 44.3769 101.322 44.5085 100.898 44.5085C100.672 44.5085 100.48 44.4738 100.309 44.3976C100.144 44.3215 100.007 44.2176 99.8975 44.0721C99.7879 43.9336 99.7057 43.7604 99.6577 43.5665C99.6098 43.3725 99.5824 43.1509 99.5824 42.9154Z" fill="white"/>
<path d="M104.967 43.0884H103.604V44.439H103.124V41.3914H103.604V42.6658H104.967V41.3914H105.453V44.439H104.967V43.0884Z" fill="white"/>
<path d="M107.692 41.7446C107.452 41.7446 107.267 41.8069 107.124 41.9316C106.98 42.0563 106.897 42.271 106.863 42.5758H108.357C108.357 42.2641 108.302 42.0493 108.178 41.9247C108.069 41.8069 107.904 41.7446 107.692 41.7446ZM108.726 44.1896C108.603 44.2866 108.452 44.3628 108.274 44.4182C108.089 44.4736 107.898 44.5013 107.692 44.5013C107.466 44.5013 107.261 44.4667 107.096 44.3905C106.925 44.3143 106.788 44.2104 106.678 44.065C106.569 43.9264 106.486 43.7602 106.439 43.5593C106.384 43.3654 106.363 43.1437 106.363 42.9013C106.363 42.3818 106.48 41.987 106.706 41.7099C106.932 41.4398 107.261 41.3013 107.685 41.3013C107.822 41.3013 107.959 41.3151 108.096 41.3498C108.233 41.3844 108.357 41.4398 108.466 41.5229C108.576 41.606 108.665 41.7307 108.733 41.8831C108.802 42.0424 108.836 42.2433 108.836 42.4996C108.836 42.6312 108.822 42.7835 108.802 42.9429H106.87C106.87 43.1229 106.891 43.2823 106.925 43.4208C106.959 43.5593 107.021 43.6771 107.096 43.774C107.171 43.871 107.274 43.9403 107.398 43.9957C107.521 44.0442 107.672 44.0719 107.85 44.0719C107.987 44.0719 108.124 44.0442 108.261 43.9957C108.398 43.9472 108.5 43.8918 108.569 43.8225L108.726 44.1896Z" fill="white"/>
<path d="M110.938 41.7448C110.733 41.7448 110.568 41.8002 110.452 41.9041C110.336 42.0149 110.246 42.1742 110.205 42.3959V43.9059C110.274 43.9613 110.363 44.0098 110.452 44.0375C110.541 44.0652 110.664 44.079 110.822 44.079C111.096 44.079 111.315 43.9751 111.48 43.7673C111.644 43.5595 111.726 43.2478 111.726 42.8461C111.726 42.6799 111.712 42.5275 111.685 42.3959C111.658 42.2573 111.61 42.1396 111.548 42.0496C111.486 41.9526 111.404 41.8764 111.308 41.8279C111.205 41.7656 111.082 41.7448 110.938 41.7448ZM109.719 41.3915H110.048L110.137 41.7586H110.164C110.26 41.6132 110.377 41.5093 110.52 41.4331C110.664 41.3569 110.836 41.3223 111.021 41.3223C111.425 41.3223 111.719 41.44 111.918 41.6824C112.117 41.9249 112.212 42.3128 112.212 42.86C112.212 43.1162 112.178 43.3448 112.11 43.5526C112.041 43.7604 111.952 43.9336 111.829 44.0721C111.706 44.2176 111.562 44.3215 111.39 44.4046C111.219 44.4808 111.027 44.5223 110.822 44.5223C110.671 44.5223 110.555 44.5154 110.473 44.4946C110.383 44.4738 110.294 44.4461 110.192 44.3976V45.6652H109.712V41.3915H109.719Z" fill="white"/>
<path d="M114.973 43.0884H113.61V44.439H113.131V41.3914H113.61V42.6658H114.973V41.3914H115.46V44.439H114.973V43.0884Z" fill="white"/>
<path d="M116.864 42.9154C116.864 43.0678 116.878 43.2201 116.912 43.3587C116.94 43.5041 116.988 43.6219 117.056 43.7327C117.118 43.8366 117.207 43.9197 117.309 43.989C117.412 44.0513 117.542 44.086 117.686 44.086C118.234 44.0929 118.508 43.6981 118.508 42.9154C118.508 42.7561 118.495 42.6106 118.46 42.4651C118.433 42.3197 118.385 42.2019 118.316 42.0911C118.255 41.9872 118.166 41.9041 118.063 41.8348C117.96 41.7725 117.83 41.7379 117.679 41.7379C117.138 41.7379 116.864 42.1257 116.864 42.9154ZM116.364 42.9154C116.364 42.4028 116.481 42.008 116.707 41.7309C116.933 41.4539 117.262 41.3223 117.686 41.3223C117.912 41.3223 118.111 41.3569 118.275 41.4331C118.44 41.5093 118.577 41.6132 118.686 41.7586C118.796 41.8972 118.878 42.0703 118.926 42.2643C118.981 42.4582 119.001 42.6799 119.001 42.9154C119.001 43.4349 118.885 43.8297 118.659 44.0998C118.433 44.3769 118.104 44.5085 117.679 44.5085C117.453 44.5085 117.262 44.4738 117.09 44.3976C116.926 44.3215 116.789 44.2176 116.679 44.0721C116.57 43.9336 116.487 43.7604 116.439 43.5665C116.385 43.3725 116.364 43.1509 116.364 42.9154Z" fill="white"/>
<path d="M121.098 41.7446C120.859 41.7446 120.674 41.8069 120.53 41.9316C120.386 42.0563 120.304 42.271 120.269 42.5758H121.763C121.763 42.2641 121.708 42.0493 121.585 41.9247C121.475 41.8069 121.311 41.7446 121.098 41.7446ZM122.133 44.1896C122.009 44.2866 121.859 44.3628 121.681 44.4182C121.496 44.4736 121.304 44.5013 121.098 44.5013C120.872 44.5013 120.667 44.4667 120.502 44.3905C120.331 44.3143 120.194 44.2104 120.085 44.065C119.975 43.9264 119.893 43.7602 119.845 43.5593C119.79 43.3654 119.769 43.1437 119.769 42.9013C119.769 42.3818 119.886 41.987 120.112 41.7099C120.338 41.4398 120.667 41.3013 121.091 41.3013C121.228 41.3013 121.365 41.3151 121.502 41.3498C121.64 41.3844 121.763 41.4398 121.872 41.5229C121.982 41.606 122.071 41.7307 122.14 41.8831C122.208 42.0424 122.242 42.2433 122.242 42.4996C122.242 42.6312 122.229 42.7835 122.208 42.9429H120.276C120.276 43.1229 120.297 43.2823 120.331 43.4208C120.365 43.5593 120.427 43.6771 120.502 43.774C120.578 43.871 120.68 43.9403 120.804 43.9957C120.927 44.0442 121.078 44.0719 121.256 44.0719C121.393 44.0719 121.53 44.0442 121.667 43.9957C121.804 43.9472 121.907 43.8918 121.975 43.8225L122.133 44.1896Z" fill="white"/>
<path d="M124.935 42.9154C124.935 43.0678 124.949 43.2201 124.983 43.3587C125.01 43.5041 125.058 43.6219 125.127 43.7327C125.189 43.8366 125.278 43.9197 125.38 43.989C125.483 44.0513 125.613 44.086 125.757 44.086C126.305 44.0929 126.579 43.6981 126.579 42.9154C126.579 42.7561 126.565 42.6106 126.531 42.4651C126.504 42.3197 126.456 42.2019 126.387 42.0911C126.326 41.9872 126.237 41.9041 126.134 41.8348C126.031 41.7725 125.901 41.7379 125.75 41.7379C125.209 41.7379 124.935 42.1257 124.935 42.9154ZM124.435 42.9154C124.435 42.4028 124.552 42.008 124.778 41.7309C125.004 41.4539 125.332 41.3223 125.757 41.3223C125.983 41.3223 126.182 41.3569 126.346 41.4331C126.511 41.5093 126.648 41.6132 126.757 41.7586C126.867 41.8972 126.949 42.0703 126.997 42.2643C127.052 42.4582 127.072 42.6799 127.072 42.9154C127.072 43.4349 126.956 43.8297 126.73 44.0998C126.504 44.3769 126.175 44.5085 125.75 44.5085C125.524 44.5085 125.332 44.4738 125.161 44.3976C124.997 44.3215 124.86 44.2176 124.75 44.0721C124.641 43.9336 124.558 43.7604 124.51 43.5665C124.462 43.3725 124.435 43.1509 124.435 42.9154Z" fill="white"/>
<path d="M128.339 42.9219C128.339 43.0743 128.353 43.2267 128.387 43.3652C128.421 43.5107 128.469 43.6353 128.538 43.7392C128.606 43.8501 128.689 43.9332 128.791 43.9955C128.894 44.0579 129.017 44.0856 129.161 44.0856C129.442 44.0856 129.648 43.9817 129.778 43.7808C129.915 43.5799 129.976 43.2821 129.976 42.8873C129.976 42.7349 129.963 42.5894 129.935 42.4578C129.908 42.3262 129.867 42.2154 129.805 42.1184C129.744 42.0215 129.668 41.9522 129.579 41.8968C129.483 41.8483 129.374 41.8206 129.25 41.8206C128.935 41.8206 128.709 41.9106 128.565 42.0976C128.408 42.2916 128.339 42.5617 128.339 42.9219ZM128.284 41.9314C128.415 41.7375 128.565 41.5989 128.723 41.5227C128.887 41.4396 129.086 41.405 129.326 41.405C129.696 41.405 129.983 41.5227 130.182 41.7721C130.381 42.0145 130.477 42.3747 130.477 42.8526C130.477 43.3998 130.36 43.8154 130.134 44.0994C129.901 44.3834 129.579 44.5219 129.168 44.5219C128.723 44.5219 128.394 44.3696 128.175 44.0579C127.956 43.7462 127.846 43.2613 127.846 42.6033C127.846 42.25 127.86 41.9522 127.894 41.7098C127.928 41.4604 127.976 41.2526 128.045 41.0794C128.113 40.9063 128.189 40.7747 128.284 40.6708C128.38 40.5669 128.483 40.4907 128.606 40.4283C128.723 40.3729 128.853 40.3314 128.997 40.3037C129.141 40.2829 129.291 40.2621 129.449 40.2413C129.661 40.2206 129.826 40.1998 129.942 40.1721C130.059 40.1444 130.155 40.0959 130.23 40.0266L130.285 40.463C130.244 40.4976 130.203 40.5322 130.155 40.553C130.107 40.5738 130.045 40.5946 129.976 40.6154C129.908 40.6292 129.826 40.6431 129.737 40.6569C129.641 40.6708 129.531 40.6777 129.408 40.6846C129.237 40.6985 129.086 40.7193 128.956 40.747C128.826 40.7747 128.716 40.837 128.62 40.9271C128.524 41.0171 128.449 41.1349 128.394 41.3011C128.339 41.4604 128.305 41.6751 128.284 41.9383V41.9314Z" fill="white"/>
<path d="M135.318 45.2287H134.996L134.907 44.439H131.379V41.3914H131.858V44.0096H132.893V41.3914H133.372V44.0096H134.407V41.3914H134.886V44.0096H135.318V45.2287Z" fill="white"/>
<path d="M137.215 41.7446C136.975 41.7446 136.79 41.8069 136.647 41.9316C136.503 42.0563 136.421 42.271 136.386 42.5758H137.88C137.88 42.2641 137.825 42.0493 137.702 41.9247C137.592 41.8069 137.428 41.7446 137.215 41.7446ZM138.25 44.1896C138.126 44.2866 137.976 44.3628 137.797 44.4182C137.612 44.4736 137.421 44.5013 137.215 44.5013C136.989 44.5013 136.784 44.4667 136.619 44.3905C136.448 44.3143 136.311 44.2104 136.201 44.065C136.092 43.9264 136.01 43.7602 135.962 43.5593C135.907 43.3654 135.886 43.1437 135.886 42.9013C135.886 42.3818 136.003 41.987 136.229 41.7099C136.455 41.4398 136.784 41.3013 137.208 41.3013C137.345 41.3013 137.482 41.3151 137.619 41.3498C137.756 41.3844 137.88 41.4398 137.989 41.5229C138.099 41.606 138.188 41.7307 138.256 41.8831C138.325 42.0424 138.359 42.2433 138.359 42.4996C138.359 42.6312 138.345 42.7835 138.325 42.9429H136.393C136.393 43.1229 136.414 43.2823 136.448 43.4208C136.482 43.5593 136.544 43.6771 136.619 43.774C136.695 43.871 136.797 43.9403 136.921 43.9957C137.044 44.0442 137.195 44.0719 137.373 44.0719C137.51 44.0719 137.647 44.0442 137.784 43.9957C137.921 43.9472 138.023 43.8918 138.092 43.8225L138.25 44.1896Z" fill="white"/>
<path d="M141.34 44.2383C141.216 44.3284 141.072 44.3977 140.908 44.4461C140.744 44.4946 140.572 44.5154 140.387 44.5154C140.155 44.5154 139.956 44.4808 139.798 44.4046C139.641 44.3284 139.504 44.2245 139.401 44.079C139.298 43.9405 139.223 43.7673 139.175 43.5734C139.127 43.3795 139.106 43.1578 139.106 42.9154C139.106 42.4028 139.216 42.008 139.442 41.7309C139.668 41.4539 139.99 41.3223 140.415 41.3223C140.607 41.3223 140.771 41.3361 140.908 41.3708C141.045 41.4054 141.168 41.4469 141.271 41.5024L141.134 41.9249C141.038 41.8695 140.935 41.8279 140.826 41.8002C140.709 41.7725 140.593 41.7517 140.463 41.7517C139.894 41.7517 139.607 42.1396 139.607 42.9223C139.607 43.0747 139.62 43.2271 139.654 43.3656C139.682 43.5041 139.737 43.6288 139.805 43.7396C139.874 43.8505 139.97 43.9336 140.086 43.9959C140.202 44.0583 140.339 44.0929 140.511 44.0929C140.655 44.0929 140.785 44.0721 140.901 44.0236C141.018 43.9821 141.107 43.9266 141.182 43.8712L141.34 44.2383Z" fill="white"/>
<path d="M144.239 41.8139H143.293V44.439H142.814V41.8139H141.869V41.3914H144.239V41.8139Z" fill="white"/>
<path d="M145.416 44.031C145.492 44.0379 145.567 44.0449 145.642 44.0518C145.718 44.0587 145.807 44.0587 145.903 44.0587C146.17 44.0587 146.368 44.0172 146.505 43.941C146.636 43.8648 146.704 43.7332 146.704 43.5461C146.704 43.4007 146.649 43.2829 146.54 43.1929C146.43 43.1029 146.231 43.0544 145.951 43.0544H145.423V44.031H145.416ZM146.005 42.6734C146.074 42.6734 146.149 42.6596 146.218 42.6388C146.286 42.6111 146.348 42.5834 146.403 42.5349C146.458 42.4933 146.499 42.4448 146.533 42.3825C146.567 42.3271 146.588 42.2647 146.588 42.2024C146.588 42.0431 146.54 41.9253 146.444 41.863C146.348 41.8007 146.177 41.766 145.937 41.766C145.807 41.766 145.704 41.766 145.635 41.773C145.56 41.7799 145.492 41.7799 145.423 41.7868V42.6734H146.005ZM144.93 41.392C145.074 41.3851 145.218 41.3712 145.375 41.3643C145.533 41.3504 145.725 41.3435 145.951 41.3435C146.348 41.3435 146.636 41.4058 146.807 41.5305C146.978 41.6552 147.067 41.8422 147.067 42.0916C147.067 42.237 147.026 42.3756 146.944 42.5072C146.862 42.6457 146.725 42.7427 146.54 42.8119V42.8396C146.779 42.8812 146.944 42.9712 147.04 43.089C147.136 43.2137 147.184 43.373 147.184 43.5808C147.184 43.8994 147.074 44.128 146.848 44.2734C146.622 44.4189 146.286 44.4882 145.834 44.4882C145.663 44.4882 145.505 44.4812 145.361 44.4743C145.218 44.4674 145.074 44.4535 144.93 44.4397V41.392Z" fill="white"/>
<path d="M148.423 42.9154C148.423 43.0678 148.437 43.2201 148.471 43.3587C148.498 43.5041 148.546 43.6219 148.615 43.7327C148.676 43.8366 148.765 43.9197 148.868 43.989C148.971 44.0513 149.101 44.086 149.245 44.086C149.793 44.0929 150.067 43.6981 150.067 42.9154C150.067 42.7561 150.053 42.6106 150.019 42.4651C149.992 42.3197 149.944 42.2019 149.875 42.0911C149.813 41.9872 149.724 41.9041 149.622 41.8348C149.519 41.7725 149.389 41.7379 149.245 41.7379C148.697 41.7379 148.423 42.1257 148.423 42.9154ZM147.923 42.9154C147.923 42.4028 148.039 42.008 148.265 41.7309C148.491 41.4539 148.82 41.3223 149.245 41.3223C149.471 41.3223 149.663 41.3569 149.834 41.4331C149.998 41.5093 150.142 41.6132 150.245 41.7586C150.355 41.8972 150.437 42.0703 150.485 42.2643C150.54 42.4582 150.56 42.6799 150.56 42.9154C150.56 43.4349 150.444 43.8297 150.218 44.0998C149.992 44.3769 149.663 44.5085 149.238 44.5085C149.012 44.5085 148.82 44.4738 148.649 44.3976C148.485 44.3215 148.348 44.2176 148.238 44.0721C148.128 43.9336 148.046 43.7604 147.998 43.5665C147.95 43.3725 147.923 43.1509 147.923 42.9154Z" fill="white"/>
<path d="M151.165 40.0964C151.35 40.2904 151.507 40.5051 151.638 40.7406C151.768 40.9761 151.87 41.2116 151.946 41.461C152.021 41.7034 152.083 41.9527 152.117 42.2021C152.151 42.4515 152.172 42.6939 152.172 42.9155C152.172 43.1372 152.151 43.3727 152.117 43.622C152.083 43.8714 152.021 44.1208 151.939 44.3701C151.857 44.6195 151.754 44.8619 151.624 45.1043C151.494 45.3468 151.336 45.5684 151.144 45.7762L150.857 45.5615C151.014 45.3537 151.151 45.139 151.261 44.9173C151.37 44.6957 151.453 44.4671 151.514 44.2385C151.576 44.0099 151.624 43.7814 151.644 43.5597C151.672 43.3381 151.686 43.1233 151.686 42.9155C151.686 42.7216 151.672 42.5069 151.638 42.2783C151.603 42.0497 151.555 41.8211 151.487 41.5856C151.418 41.3571 151.336 41.1285 151.233 40.9068C151.131 40.6852 151.001 40.4912 150.857 40.3112L151.165 40.0964Z" fill="white"/>
<path d="M41.4826 7.99999V1.44418H45.5735V0.750283H40.7162V7.99999H41.4826Z" fill="white"/>
<path d="M47.3733 8.12427C48.1294 8.12427 48.7094 7.96892 49.1236 7.64786V6.98503C48.6369 7.29573 48.0983 7.45109 47.5183 7.45109C46.317 7.45109 45.4677 6.75718 45.3849 5.68008H49.4965V5.47295C49.4965 4.34407 48.8336 2.87341 47.1559 2.87341C46.4102 2.87341 45.7991 3.12197 45.3227 3.62945C44.8567 4.12658 44.6185 4.74798 44.6185 5.50402C44.6185 6.27042 44.8774 6.90218 45.4056 7.38894C45.9338 7.87571 46.5966 8.12427 47.3733 8.12427ZM45.3952 5.06904C45.4263 4.65477 45.6023 4.30264 45.9027 4.00229C46.2134 3.70195 46.6173 3.5466 47.1248 3.5466C47.653 3.5466 48.0465 3.70195 48.3054 4.02301C48.5747 4.33371 48.7197 4.68584 48.7404 5.06904H45.3952Z" fill="white"/>
<path d="M51.6433 7.99999V5.7733H54.7193V7.99999H55.4649V2.99769H54.7193V5.10011H51.6433V2.99769H50.8976V7.99999H51.6433Z" fill="white"/>
<path d="M59.6214 8.12427C60.3774 8.12427 60.9574 7.96892 61.3717 7.64786V6.98503C60.8849 7.29573 60.3464 7.45109 59.7664 7.45109C58.565 7.45109 57.7157 6.75718 57.6329 5.68008H61.7445V5.47295C61.7445 4.34407 61.0817 2.87341 59.4039 2.87341C58.6582 2.87341 58.0472 3.12197 57.5708 3.62945C57.1047 4.12658 56.8665 4.74798 56.8665 5.50402C56.8665 6.27042 57.1254 6.90218 57.6536 7.38894C58.1818 7.87571 58.8446 8.12427 59.6214 8.12427ZM57.6432 5.06904C57.6743 4.65477 57.8504 4.30264 58.1507 4.00229C58.4614 3.70195 58.8653 3.5466 59.3728 3.5466C59.901 3.5466 60.2946 3.70195 60.5535 4.02301C60.8228 4.33371 60.9678 4.68584 60.9885 5.06904H57.6432Z" fill="white"/>
<path d="M63.8913 7.20252C64.3574 7.81357 64.9995 8.12427 65.8281 8.12427C66.5634 8.12427 67.1744 7.86535 67.6405 7.35787C68.1065 6.8504 68.3447 6.22899 68.3447 5.49366C68.3447 4.76869 68.1065 4.14729 67.6405 3.63981C67.1744 3.13233 66.5634 2.87341 65.8281 2.87341C64.9995 2.87341 64.3574 3.18411 63.8913 3.79516V2.99769H63.1457V10.0713H63.8913V7.20252ZM63.8913 4.67548C64.1917 4.02301 64.8959 3.5466 65.652 3.5466C66.2009 3.5466 66.6669 3.73302 67.0294 4.10586C67.3919 4.4787 67.5783 4.94476 67.5783 5.49366C67.5783 6.04257 67.3919 6.50862 67.0294 6.89182C66.6669 7.26466 66.2009 7.45109 65.652 7.45109C64.8959 7.45109 64.1813 6.98503 63.8913 6.3222V4.67548Z" fill="white"/>
<path d="M71.418 7.45109C70.6413 7.45109 70.0509 7.09896 70.0509 6.42577C70.0509 5.80437 70.6205 5.42117 71.5319 5.42117C72.1016 5.42117 72.6505 5.58687 73.1579 5.91829V6.61219C72.7955 7.06789 72.1326 7.45109 71.418 7.45109ZM71.2109 8.12427C72.0498 8.12427 72.723 7.83428 73.2304 7.24395C73.3133 7.7825 73.6861 8.04142 74.1729 8.04142C74.4008 8.04142 74.5665 7.99999 74.67 7.92749V7.34752C74.5872 7.38894 74.494 7.40966 74.38 7.40966C74.0901 7.40966 73.9036 7.17145 73.9036 6.78825V4.72727C73.9036 3.51553 73.0026 2.87341 71.6666 2.87341C70.952 2.87341 70.3616 3.02876 69.8749 3.32911V4.05408C70.3823 3.71231 70.9209 3.5466 71.5112 3.5466C72.609 3.5466 73.1579 3.96087 73.1579 4.79976V5.29689C72.609 4.97583 72.0084 4.81012 71.3559 4.81012C70.7655 4.81012 70.2788 4.95511 69.8852 5.25546C69.502 5.5558 69.3052 5.95972 69.3052 6.4672C69.3052 6.98503 69.4917 7.38894 69.8542 7.68929C70.227 7.97928 70.6827 8.12427 71.2109 8.12427Z" fill="white"/>
<path d="M75.2163 7.99999C75.2681 8.01035 75.3406 8.01035 75.4338 8.01035C76.2209 8.05178 76.7077 7.51322 76.9356 6.91253C77.1116 6.50862 77.1945 5.87686 77.2359 5.42117C77.2566 5.19332 77.267 4.92404 77.2773 4.61334L77.3084 3.65017H79.5869V7.99999H80.3326V2.99769H76.5938L76.5524 4.59263C76.5213 5.41081 76.4695 5.94936 76.3038 6.49827C76.1485 7.03682 75.8585 7.3268 75.4131 7.3268C75.3303 7.3268 75.2681 7.3268 75.2163 7.31645V7.99999Z" fill="white"/>
<path d="M84.6162 7.99999C85.8072 7.99999 86.4908 7.31645 86.4908 6.33256C86.4908 5.32796 85.7555 4.67548 84.5851 4.67548H82.8349V2.99769H82.0892V7.99999H84.6162ZM82.8349 5.32796H84.4816C85.2687 5.32796 85.7347 5.69044 85.7347 6.34291C85.7347 6.97467 85.2687 7.34752 84.4816 7.34752H82.8349V5.32796Z" fill="white"/>
<path d="M88.6302 7.99999V5.7733H91.7061V7.99999H92.4518V2.99769H91.7061V5.10011H88.6302V2.99769H87.8845V7.99999H88.6302Z" fill="white"/>
<path d="M99.9328 7.99999V2.99769H99.1871V7.99999H99.9328ZM96.484 7.99999C97.675 7.99999 98.3585 7.31645 98.3585 6.33256C98.3585 5.32796 97.6232 4.67548 96.4529 4.67548H94.9615V2.99769H94.2158V7.99999H96.484ZM94.9615 5.32796H96.3493C97.1364 5.32796 97.6025 5.69044 97.6025 6.34291C97.6025 6.97467 97.1364 7.34752 96.3493 7.34752H94.9615V5.32796Z" fill="white"/>
<path d="M102.384 7.99999L105.584 4.10586V7.99999H106.33V2.99769H105.636L102.436 6.90218V2.99769H101.69V7.99999H102.384ZM104.02 2.14844C104.973 2.14844 105.677 1.52704 105.688 0.574219H105.035C105.025 1.14384 104.621 1.54775 104.01 1.54775C103.389 1.54775 102.985 1.14384 102.985 0.574219H102.322C102.332 1.52704 103.016 2.14844 104.02 2.14844Z" fill="white"/>
<path d="M111.569 7.99999V3.65017H114.572V7.99999H115.318V2.99769H110.823V7.99999H111.569Z" fill="white"/>
<path d="M118.762 7.45109C117.985 7.45109 117.395 7.09896 117.395 6.42577C117.395 5.80437 117.964 5.42117 118.876 5.42117C119.445 5.42117 119.994 5.58687 120.502 5.91829V6.61219C120.139 7.06789 119.476 7.45109 118.762 7.45109ZM118.554 8.12427C119.393 8.12427 120.067 7.83428 120.574 7.24395C120.657 7.7825 121.03 8.04142 121.516 8.04142C121.744 8.04142 121.91 7.99999 122.014 7.92749V7.34752C121.931 7.38894 121.838 7.40966 121.724 7.40966C121.434 7.40966 121.247 7.17145 121.247 6.78825V4.72727C121.247 3.51553 120.346 2.87341 119.01 2.87341C118.296 2.87341 117.705 3.02876 117.218 3.32911V4.05408C117.726 3.71231 118.264 3.5466 118.855 3.5466C119.953 3.5466 120.502 3.96087 120.502 4.79976V5.29689C119.953 4.97583 119.352 4.81012 118.699 4.81012C118.109 4.81012 117.622 4.95511 117.229 5.25546C116.846 5.5558 116.649 5.95972 116.649 6.4672C116.649 6.98503 116.835 7.38894 117.198 7.68929C117.571 7.97928 118.026 8.12427 118.554 8.12427Z" fill="white"/>
<path d="M123.968 7.20252C124.435 7.81357 125.077 8.12427 125.905 8.12427C126.64 8.12427 127.252 7.86535 127.718 7.35787C128.184 6.8504 128.422 6.22899 128.422 5.49366C128.422 4.76869 128.184 4.14729 127.718 3.63981C127.252 3.13233 126.64 2.87341 125.905 2.87341C125.077 2.87341 124.435 3.18411 123.968 3.79516V2.99769H123.223V10.0713H123.968V7.20252ZM123.968 4.67548C124.269 4.02301 124.973 3.5466 125.729 3.5466C126.278 3.5466 126.744 3.73302 127.107 4.10586C127.469 4.4787 127.655 4.94476 127.655 5.49366C127.655 6.04257 127.469 6.50862 127.107 6.89182C126.744 7.26466 126.278 7.45109 125.729 7.45109C124.973 7.45109 124.258 6.98503 123.968 6.3222V4.67548Z" fill="white"/>
<path d="M131.582 7.99999V3.65017H133.395V2.99769H129.024V3.65017H130.836V7.99999H131.582Z" fill="white"/>
<path d="M135.286 7.99999V5.7733H138.362V7.99999H139.108V2.99769H138.362V5.10011H135.286V2.99769H134.54V7.99999H135.286Z" fill="white"/>
<path d="M143.264 8.12427C144.02 8.12427 144.6 7.96892 145.014 7.64786V6.98503C144.528 7.29573 143.989 7.45109 143.409 7.45109C142.208 7.45109 141.358 6.75718 141.276 5.68008H145.387V5.47295C145.387 4.34407 144.724 2.87341 143.047 2.87341C142.301 2.87341 141.69 3.12197 141.213 3.62945C140.747 4.12658 140.509 4.74798 140.509 5.50402C140.509 6.27042 140.768 6.90218 141.296 7.38894C141.824 7.87571 142.487 8.12427 143.264 8.12427ZM141.286 5.06904C141.317 4.65477 141.493 4.30264 141.793 4.00229C142.104 3.70195 142.508 3.5466 143.016 3.5466C143.544 3.5466 143.937 3.70195 144.196 4.02301C144.465 4.33371 144.61 4.68584 144.631 5.06904H141.286Z" fill="white"/>
<path d="M147.534 7.20252C148 7.81357 148.642 8.12427 149.471 8.12427C150.206 8.12427 150.817 7.86535 151.283 7.35787C151.749 6.8504 151.987 6.22899 151.987 5.49366C151.987 4.76869 151.749 4.14729 151.283 3.63981C150.817 3.13233 150.206 2.87341 149.471 2.87341C148.642 2.87341 148 3.18411 147.534 3.79516V2.99769H146.788V10.0713H147.534V7.20252ZM147.534 4.67548C147.834 4.02301 148.539 3.5466 149.295 3.5466C149.844 3.5466 150.31 3.73302 150.672 4.10586C151.035 4.4787 151.221 4.94476 151.221 5.49366C151.221 6.04257 151.035 6.50862 150.672 6.89182C150.31 7.26466 149.844 7.45109 149.295 7.45109C148.539 7.45109 147.824 6.98503 147.534 6.3222V4.67548Z" fill="white"/>
</svg>
