<svg width="13" height="16" viewBox="0 0 13 16" fill="none" xmlns="http://www.w3.org/2000/svg">
<path d="M8.03941 10.4312C7.91539 10.4312 7.79045 10.49 7.66528 10.6119V13.1288C7.79045 13.2533 7.91539 13.3132 8.03941 13.3132C8.25474 13.3132 8.36503 13.1288 8.36503 12.7563V10.9948C8.36526 10.6213 8.25474 10.4312 8.03941 10.4312Z" fill="#C6AC84"/>
<path d="M10.7775 10.4312C10.5274 10.4312 10.4017 10.6213 10.4017 11.0037V11.386H11.1509V11.0037C11.1511 10.6213 11.026 10.4312 10.7775 10.4312Z" fill="#C6AC84"/>
<path d="M12.3324 7.59587C11.8621 7.10641 11.3354 7.10435 11.0935 7.0762C9.36452 6.95264 6.77123 6.95264 6.77123 6.95264H6.76551C6.76551 6.95264 4.17223 6.95264 2.44162 7.0762C2.20044 7.10435 1.6746 7.10664 1.20391 7.59587C0.833665 7.96931 0.712616 8.81482 0.712616 8.81482C0.712616 8.81482 0.589966 9.80861 0.589966 10.8022V11.7342C0.589966 12.7275 0.712616 13.7218 0.712616 13.7218C0.712616 13.7218 0.833665 14.5673 1.20391 14.9393C1.6746 15.4288 2.29151 15.4135 2.56588 15.4645C3.55532 15.559 6.76826 15.5876 6.76826 15.5876C6.76826 15.5876 9.36474 15.5839 11.0938 15.459C11.3356 15.4313 11.8624 15.4286 12.3326 14.9393C12.7031 14.5673 12.8239 13.7218 12.8239 13.7218C12.8239 13.7218 12.9466 12.7275 12.9466 11.7342V10.8022C12.9466 9.80861 12.8239 8.81482 12.8239 8.81482C12.8239 8.81482 12.7029 7.96931 12.3324 7.59587ZM3.31276 13.9357H2.47938V9.17568H1.59817V8.3963H4.20999V9.17568H3.31299V13.9357H3.31276ZM6.26736 13.9357H5.51727V13.4852C5.22002 13.8259 4.93605 13.9934 4.661 13.9934C4.41982 13.9934 4.25346 13.8945 4.17772 13.6854C4.13699 13.5604 4.11228 13.363 4.11228 13.0714V9.80815H4.86168V12.847C4.86168 13.022 4.86168 13.1133 4.86718 13.1376C4.88617 13.2536 4.94406 13.3135 5.0436 13.3135C5.19417 13.3135 5.35045 13.1975 5.51704 12.9627V9.80815H6.26713V13.9357H6.26736ZM9.11395 12.698C9.11395 13.0785 9.08878 13.3538 9.03821 13.5289C8.93798 13.8364 8.73776 13.9934 8.44029 13.9934C8.17302 13.9934 7.91536 13.8453 7.66526 13.536V13.9357H6.91539V8.3963H7.66526V10.2052C7.9069 9.90792 8.16387 9.75758 8.44029 9.75758C8.73753 9.75758 8.93775 9.91501 9.03821 10.2235C9.08878 10.3903 9.11395 10.6624 9.11395 11.0536V12.698ZM11.9008 12.0079H10.402V12.7399C10.402 13.1222 10.5276 13.3133 10.7848 13.3133C10.9693 13.3133 11.0766 13.2126 11.1196 13.0133C11.1262 12.9726 11.1363 12.8055 11.1363 12.5055H11.9008V12.6152C11.9008 12.8557 11.891 13.0216 11.8846 13.0971C11.8599 13.2625 11.8004 13.4124 11.7093 13.5444C11.502 13.8446 11.1944 13.9929 10.8025 13.9929C10.4109 13.9929 10.1128 13.8515 9.89631 13.5689C9.73704 13.3625 9.65581 13.0367 9.65581 12.5985V11.1525C9.65581 10.7116 9.72858 10.3898 9.88738 10.1802C10.1039 9.89785 10.402 9.75712 10.7848 9.75712C11.1608 9.75712 11.4592 9.89762 11.6688 10.1802C11.8255 10.3898 11.901 10.7116 11.901 11.1525V12.0079H11.9008Z" fill="#C6AC84"/>
<path d="M4.79048 6.53995V4.27274L5.80005 0.942871H4.95111L4.37836 3.14074L3.78227 0.942871H2.89832C3.07611 1.46185 3.26009 1.98265 3.43743 2.50255C3.70607 3.28307 3.87449 3.87138 3.95091 4.27251V6.53972H4.79048V6.53995Z" fill="#C6AC84"/>
<path d="M6.76083 6.5972C7.13977 6.5972 7.43404 6.45441 7.64364 6.17067C7.80199 5.96244 7.8791 5.63385 7.8791 5.18969V3.72819C7.8791 3.28312 7.80199 2.95773 7.64364 2.74675C7.43381 2.46072 7.13977 2.31885 6.76083 2.31885C6.38236 2.31885 6.0874 2.46072 5.87894 2.74675C5.71716 2.95773 5.64233 3.28312 5.64233 3.72819V5.18969C5.64233 5.63385 5.71716 5.96244 5.87894 6.17067C6.0874 6.45441 6.38236 6.5972 6.76083 6.5972ZM6.39906 3.57693C6.39906 3.19113 6.51668 2.99823 6.76083 2.99823C7.00385 2.99823 7.12078 3.19136 7.12078 3.57693V5.3318C7.12078 5.71782 7.00385 5.91072 6.76083 5.91072C6.51668 5.91072 6.39906 5.7176 6.39906 5.3318V3.57693Z" fill="#C6AC84"/>
<path d="M10.6374 6.53989V2.36816H9.88042V5.55685C9.71269 5.79346 9.55388 5.91107 9.40263 5.91107C9.3008 5.91107 9.24062 5.85043 9.22483 5.73419C9.21522 5.70925 9.21522 5.61749 9.21522 5.44015V2.36816H8.46033V5.66737C8.46033 5.96233 8.48504 6.16187 8.52737 6.28772C8.60334 6.49824 8.77176 6.59732 9.01546 6.59732C9.29096 6.59732 9.57837 6.42982 9.88065 6.08475V6.53989H10.6374Z" fill="#C6AC84"/>
</svg>
