<svg width="15" height="15" viewBox="0 0 15 15" fill="none" xmlns="http://www.w3.org/2000/svg">
<path d="M10.912 0.765991H4.63074C2.50001 0.765991 0.766235 2.49977 0.766235 4.6305V10.9059C0.766235 13.0425 2.50001 14.7763 4.63074 14.7763H10.9062C13.0369 14.7763 14.7707 13.0425 14.7707 10.9118V4.6305C14.7765 2.49977 13.0428 0.765991 10.912 0.765991ZM13.5331 10.9118C13.5331 12.3595 12.3539 13.5329 10.912 13.5329H4.63074C3.18301 13.5329 2.00965 12.3537 2.00965 10.9118V4.6305C2.00965 3.18277 3.18885 2.00941 4.63074 2.00941H10.9062C12.3539 2.00941 13.5273 3.1886 13.5273 4.6305L13.5331 10.9118Z" fill="#C6AC84"/>
<path d="M7.77074 4.16394C5.78011 4.16394 4.16309 5.78096 4.16309 7.77159C4.16309 9.76222 5.78011 11.3792 7.77074 11.3792C9.76137 11.3792 11.3784 9.76222 11.3784 7.77159C11.3784 5.78096 9.76137 4.16394 7.77074 4.16394ZM7.77074 10.1358C6.46311 10.1358 5.4065 9.07338 5.4065 7.77159C5.4065 6.46396 6.46895 5.40735 7.77074 5.40735C9.07253 5.40735 10.135 6.4698 10.135 7.77159C10.135 9.07922 9.07837 10.1358 7.77074 10.1358Z" fill="#C6AC84"/>
<path d="M11.5312 3.10779C11.2918 3.10779 11.0583 3.20703 10.889 3.37632C10.7197 3.54561 10.6205 3.77911 10.6205 4.01846C10.6205 4.2578 10.7197 4.4913 10.889 4.6606C11.0583 4.82989 11.2918 4.92913 11.5312 4.92913C11.7705 4.92913 12.004 4.82989 12.1733 4.6606C12.3426 4.4913 12.4418 4.2578 12.4418 4.01846C12.4418 3.77911 12.3426 3.54561 12.1733 3.37632C12.0098 3.20703 11.7763 3.10779 11.5312 3.10779Z" fill="#C6AC84"/>
</svg>
