<svg width="136" height="38" viewBox="0 0 136 38" fill="none" xmlns="http://www.w3.org/2000/svg">
<path d="M-0.00109863 36.9744H20.3198V31.2375H6.31658V1.57568H-0.00109863V36.9744Z" fill="white"/>
<path d="M24.076 1.53662H44.4365V7.28942H30.4095V14.6552H44.4365V20.4398H30.4095V37.0148H24.076V1.53662Z" fill="white"/>
<path d="M17.1653 20.7575L21.5062 16.3953L15.6234 14.8538L17.1653 20.7575Z" fill="white"/>
<path d="M79.7175 37.2125H80.864V33.3667L82.1765 35.1704H82.817L84.1058 33.3667V37.2125H85.2365V31.5948H84.1058L82.4849 33.9229L80.864 31.5948H79.7254V37.2125H79.7175ZM75.1393 37.3237C75.6533 37.3237 76.3807 37.1092 76.8947 35.9888L78.9584 31.5868H77.7328L76.4914 34.352L75.0761 31.5868H73.8031L75.9221 35.5121C75.6217 36.1398 75.3844 36.2908 74.9338 36.2908C74.7677 36.2908 74.491 36.251 74.2854 36.1398V37.1569C74.4751 37.2761 74.8547 37.3237 75.1393 37.3237ZM70.1421 34.0024V32.6039H71.3598C71.9054 32.6039 72.2375 32.8423 72.2375 33.3031C72.2375 33.756 71.9054 34.0024 71.3598 34.0024H70.1421ZM68.9956 37.2125H70.1421V34.9877H71.4389C72.6644 34.9877 73.384 34.2725 73.384 33.2872C73.384 32.302 72.6565 31.5948 71.4389 31.5948H68.9956V37.2125ZM64.9789 37.3237C66.6552 37.3237 67.8807 36.0127 67.8807 34.3997C67.8807 32.7787 66.6631 31.4756 64.9789 31.4756C63.2947 31.4756 62.077 32.7787 62.077 34.3997C62.077 36.0206 63.2947 37.3237 64.9789 37.3237ZM64.9789 36.2431C63.9984 36.2431 63.2552 35.4644 63.2552 34.4076C63.2552 33.3508 63.9984 32.5721 64.9789 32.5721C65.9593 32.5721 66.7026 33.3508 66.7026 34.4076C66.7026 35.4644 65.9593 36.2431 64.9789 36.2431ZM58.4477 35.7743V32.9456C59.4361 32.9615 59.9658 33.5415 59.9658 34.3599C59.9658 35.1784 59.444 35.7505 58.4477 35.7743ZM57.2933 35.7743C56.3049 35.7505 55.7752 35.1784 55.7752 34.3599C55.7752 33.5415 56.3049 32.9615 57.2933 32.9456V35.7743ZM57.2933 37.435H58.4477V36.8152C60.2663 36.7437 61.144 35.5756 61.144 34.3599C61.144 33.1442 60.2663 31.9682 58.4477 31.9047V31.3882H57.2933V31.9047C55.4747 31.9682 54.5891 33.1442 54.5891 34.3599C54.5891 35.5756 55.4668 36.7437 57.2933 36.8152V37.435Z" fill="white"/>
<path d="M117.829 21.4725C118.643 21.4725 119.284 20.964 119.292 20.0979H118.446C118.438 20.4475 118.201 20.6859 117.821 20.6859C117.442 20.6859 117.212 20.4555 117.212 20.0979H116.366C116.382 20.9719 117.007 21.4725 117.829 21.4725ZM115.41 27.4001H116.374L119.118 23.7133V27.4001H120.257V21.7824H119.268L116.556 25.4455V21.7824H115.41V27.4001ZM109.242 27.4001H110.207L112.95 23.7133V27.4001H114.089V21.7824H113.101L110.389 25.4455V21.7824H109.242V27.4001ZM103.525 27.4001H104.672V24.8098L107.076 27.4001H108.546L105.763 24.3569L108.135 21.7824H106.728L104.664 23.9993V21.7824H103.517V27.4001H103.525ZM100.877 27.5114C101.462 27.5114 102.023 27.3684 102.466 27.1061V25.946C102.015 26.2957 101.501 26.4387 100.932 26.4387C99.8486 26.4387 99.0263 25.6838 99.0263 24.6032C99.0263 23.5305 99.8328 22.7677 100.884 22.7677C101.509 22.7677 101.944 22.9266 102.355 23.1968V22.0367C101.92 21.8063 101.43 21.6871 100.877 21.6871C99.1449 21.6871 97.8481 22.8869 97.8481 24.6111C97.8481 26.3116 99.1528 27.5114 100.877 27.5114ZM92.9695 27.4001H97.1602V26.3672H94.116V24.921H96.496V23.904H94.116V22.8154H97.0733V21.7824H92.9695V27.4001ZM90.5026 27.4001H91.6412V21.7824H90.5026V24.1026C90.1784 24.2615 89.7988 24.341 89.3956 24.341C88.7156 24.341 88.3281 24.1185 88.3281 23.3875V21.7824H87.1816V23.5782C87.1816 24.8098 87.9486 25.4057 89.2454 25.4057C89.6802 25.4057 90.123 25.3342 90.5105 25.2071V27.4001H90.5026ZM81.1881 27.4001H82.1528L84.8965 23.7133V27.4001H86.0351V21.7824H85.0467L82.3347 25.4455V21.7824H81.1881V27.4001ZM76.1119 26.3672C76.6574 25.2548 76.7207 23.9834 76.7207 22.8154H78.3574V26.3672H76.1119ZM74.2933 28.5443H75.3686V27.4001H79.1956V28.5443H80.2709V26.3592H79.504V21.7745H75.5742V22.6644C75.5742 24.5714 75.337 25.5885 74.8388 26.3592H74.2853V28.5443H74.2933ZM68.5923 27.4001H69.557L72.3007 23.7133V27.4001H73.4393V21.7824H72.4509L69.7388 25.4455V21.7824H68.5923V27.4001ZM64.4016 24.19V22.7915H65.6193C66.1649 22.7915 66.497 23.0299 66.497 23.4908C66.497 23.9437 66.1649 24.19 65.6193 24.19H64.4016ZM63.2472 27.4001H64.3937V25.1753H65.6905C66.916 25.1753 67.6356 24.4602 67.6356 23.4749C67.6356 22.4896 66.9081 21.7824 65.6905 21.7824H63.2472V27.4001ZM59.4281 26.4307C58.5505 26.4307 57.8942 25.7156 57.8942 24.5953C57.8942 23.4669 58.5505 22.7598 59.4281 22.7598C60.3137 22.7598 60.97 23.4669 60.97 24.5953C60.97 25.7156 60.3137 26.4307 59.4281 26.4307ZM59.4281 21.6712C58.0365 21.6712 56.9849 22.6962 56.7635 24.047H55.9491V21.7824H54.7867V27.4001H55.9491V25.0958H56.7556C57.0007 26.4705 57.9891 27.5114 59.4281 27.5114C61.0016 27.5114 62.1323 26.2003 62.1323 24.5873C62.1323 22.9743 61.0016 21.6712 59.4281 21.6712Z" fill="white"/>
<path d="M133.564 11.6591C134.378 11.6591 135.019 11.1505 135.027 10.2844H134.181C134.173 10.634 133.936 10.8724 133.556 10.8724C133.177 10.8724 132.947 10.642 132.947 10.2844H132.101C132.125 11.1505 132.742 11.6591 133.564 11.6591ZM131.144 17.5867H132.109L134.853 13.8998V17.5867H135.999V11.9689H135.011L132.299 15.632V11.9689H131.152V17.5867H131.144ZM124.803 16.5617V14.7977H125.776C126.44 14.7977 126.843 15.1155 126.843 15.6876C126.843 16.2518 126.432 16.5617 125.776 16.5617H124.803ZM123.657 17.5867H125.847C127.207 17.5867 128.013 16.8 128.013 15.7114C128.013 14.6149 127.207 13.8283 125.847 13.8283H124.811V11.9769H123.664V17.5867H123.657ZM128.677 17.5867H129.824V11.9689H128.677V17.5867ZM117.521 17.5867H118.667V15.1235H121.19V17.5867H122.328V11.9689H121.19V14.0746H118.667V11.9689H117.521V17.5867ZM112.437 16.5458C112.982 15.4333 113.045 14.162 113.045 12.994H114.682V16.5458H112.437ZM110.618 18.7309H111.693V17.5787H115.52V18.7309H116.596V16.5458H115.829V11.961H111.899V12.8509C111.899 14.75 111.662 15.775 111.163 16.5458H110.61V18.7309H110.618ZM107.352 17.6979C109.029 17.6979 110.254 16.3868 110.254 14.7738C110.254 13.1529 109.037 11.8498 107.352 11.8498C105.676 11.8498 104.45 13.1529 104.45 14.7738C104.45 16.3868 105.676 17.6979 107.352 17.6979ZM107.352 16.6093C106.372 16.6093 105.629 15.8306 105.629 14.7738C105.629 13.717 106.372 12.9383 107.352 12.9383C108.333 12.9383 109.076 13.717 109.076 14.7738C109.076 15.8306 108.333 16.6093 107.352 16.6093ZM100.45 14.3765V12.9781H101.667C102.213 12.9781 102.545 13.2164 102.545 13.6773C102.545 14.1302 102.213 14.3765 101.667 14.3765H100.45ZM99.303 17.5867H100.45V15.3618H101.746C102.964 15.3618 103.691 14.6467 103.691 13.6614C103.691 12.6761 102.964 11.9689 101.746 11.9689H99.303V17.5867ZM94.7012 15.33L95.5235 13.3754L96.3379 15.33H94.7012ZM92.5821 17.5867H93.7919L94.3453 16.2835H96.7095L97.263 17.5867H98.4886L96.0928 11.9372H94.9937L92.5821 17.5867ZM86.9365 17.5867H88.083V15.1235H90.6053V17.5867H91.7439V11.9689H90.6053V14.0746H88.083V11.9689H86.9365V17.5867ZM82.3584 17.6979C82.8723 17.6979 83.5998 17.4834 84.1137 16.363L86.1774 11.961H84.9598L83.7184 14.7262L82.303 11.961H81.03L83.1491 15.8863C82.8486 16.514 82.6114 16.6649 82.1607 16.6649C81.9947 16.6649 81.7179 16.6252 81.5123 16.514V17.531C81.6942 17.6502 82.0816 17.6979 82.3584 17.6979ZM76.4756 16.5458C77.0212 15.4333 77.0844 14.162 77.0844 12.994H78.7212V16.5458H76.4756ZM74.657 18.7309H75.7323V17.5787H79.5593V18.7309H80.6347V16.5458H79.8677V11.961H75.9379V12.8509C75.9379 14.75 75.7007 15.775 75.2026 16.5458H74.6491V18.7309H74.657ZM66.2439 17.5867H67.7384L69.7388 15.1076V17.5867H70.8853V15.1076L72.8858 17.5867H74.3881L72.016 14.6705L74.1509 11.9689H72.7356L70.8933 14.3368V11.9689H69.7388V14.3368L67.9044 11.9689H66.4891L68.616 14.6705L66.2439 17.5867ZM61.6184 17.5867H65.8091V16.5537H62.7649V15.1076H65.1449V14.0905H62.7649V13.0019H65.7221V11.9689H61.6184V17.5867ZM54.7867 17.5867H55.9333V13.7409L57.2458 15.5446H57.8863L59.1751 13.7409V17.5867H60.3058V11.9689H59.1751L57.5542 14.2971L55.9333 11.9689H54.7947V17.5867H54.7867Z" fill="white"/>
<path d="M122.39 1.84607C123.205 1.84607 123.845 1.33753 123.853 0.471436H123.007C122.999 0.821053 122.762 1.05943 122.382 1.05943C122.003 1.05943 121.774 0.828999 121.774 0.471436H120.928C120.943 1.33753 121.568 1.84607 122.39 1.84607ZM119.971 7.76573H120.935L123.679 4.07885V7.76573H124.818V2.14801H123.829L121.117 5.81105V2.14801H119.971V7.76573ZM113.803 7.76573H114.768L117.512 4.07885V7.76573H118.65V2.14801H117.662L114.95 5.81105V2.14801H113.803V7.76573ZM108.087 7.76573H109.233V5.17538L111.637 7.76573H113.108L110.332 4.72247L112.704 2.14801H111.297L109.233 4.3649V2.14801H108.087V7.76573ZM105.43 7.87697C106.015 7.87697 106.584 7.73395 107.019 7.47173V6.30369C106.569 6.66125 106.055 6.79633 105.485 6.79633C104.402 6.79633 103.572 6.04148 103.572 4.96084C103.572 3.88815 104.378 3.12535 105.43 3.12535C106.055 3.12535 106.489 3.28427 106.901 3.56237V2.38639C106.466 2.15596 105.975 2.03677 105.422 2.03677C103.69 2.03677 102.394 3.23659 102.394 4.96084C102.409 6.67715 103.714 7.87697 105.43 7.87697ZM97.9657 7.76573H99.1122V3.18097H101.998V2.14801H97.9657V7.76573ZM93.7671 4.5556V3.15713H94.9848C95.5304 3.15713 95.8625 3.39551 95.8625 3.85637C95.8625 4.30928 95.5225 4.5556 94.9848 4.5556H93.7671ZM92.6206 7.76573H93.7671V5.54089H95.0639C96.2895 5.54089 97.009 4.82576 97.009 3.84048C97.009 2.85519 96.2815 2.14801 95.0639 2.14801H92.6206V7.76573ZM88.0425 7.87697C88.5564 7.87697 89.2839 7.66243 89.7978 6.54207L91.8615 2.14006H90.6439L89.4025 4.90522L87.9871 2.14006H86.7141L88.8332 6.06532C88.5327 6.69304 88.2955 6.84401 87.8448 6.84401C87.6788 6.84401 87.402 6.80428 87.1964 6.69304V7.71011C87.3783 7.8293 87.7657 7.87697 88.0425 7.87697ZM82.9109 6.74866V5.04825H84.089C84.7453 5.04825 85.1327 5.35814 85.1327 5.9064C85.1327 6.45466 84.7374 6.74866 84.089 6.74866H82.9109ZM81.7564 7.76573H84.1681C85.4964 7.76573 86.2871 7.00293 86.2871 5.93024C86.2871 4.86549 85.4964 4.0868 84.1681 4.0868H82.9029V3.18097H85.8127V2.14801H81.7564V7.76573ZM77.5657 4.5556V3.15713H78.7834C79.329 3.15713 79.6611 3.39551 79.6611 3.85637C79.6611 4.30928 79.329 4.5556 78.7834 4.5556H77.5657ZM76.4113 7.76573H77.5578V5.54089H78.8546C80.0722 5.54089 80.7997 4.82576 80.7997 3.84048C80.7997 2.85519 80.0722 2.14801 78.8546 2.14801H76.4113V7.76573ZM71.2243 7.76573H75.415V6.73277H72.3709V5.28662H74.7509V4.26955H72.3709V3.18097H75.3281V2.14801H71.2243V7.76573ZM65.5946 2.14801V3.18097H67.3578V7.76573H68.5043V3.18097H70.2755V2.14801H65.5946ZM60.7792 7.76573H64.9699V6.73277H61.9257V5.28662H64.3057V4.26955H61.9257V3.18097H64.8829V2.14801H60.7792V7.76573ZM54.7857 7.76573H55.9322V3.18097H58.3202V7.76573H59.4588V2.14801H54.7778V7.76573H54.7857Z" fill="white"/>
</svg>
