<svg width="15" height="12" viewBox="0 0 15 12" fill="none" xmlns="http://www.w3.org/2000/svg">
<path d="M14.5943 1.61906C14.0809 1.84822 13.5259 2.00265 12.945 2.0724C13.5363 1.71371 13.9927 1.1458 14.2053 0.47327C13.6504 0.807044 13.0383 1.04617 12.3796 1.17569C11.8558 0.612758 11.1141 0.264038 10.2842 0.264038C8.69705 0.264038 7.41074 1.55928 7.41074 3.15841C7.41074 3.38259 7.43667 3.60676 7.48335 3.81599C5.09747 3.69643 2.98129 2.54566 1.56531 0.792099C1.31635 1.22053 1.17631 1.7187 1.17631 2.24676C1.17631 3.25306 1.68461 4.13482 2.45743 4.65292C1.98544 4.63798 1.53938 4.50845 1.15556 4.29424V4.32911C1.15556 5.72897 2.14622 6.89967 3.45846 7.16868C3.21987 7.23345 2.96573 7.26832 2.7012 7.26832C2.51448 7.26832 2.33813 7.24839 2.16178 7.21352C2.53004 8.36429 3.58813 9.20122 4.84332 9.22115C3.86303 9.99829 2.6234 10.4566 1.27486 10.4566C1.04145 10.4566 0.813239 10.4417 0.59021 10.4168C1.86096 11.2437 3.37029 11.722 4.99373 11.722C10.279 11.722 13.168 7.31315 13.168 3.4872L13.1576 3.11357C13.723 2.71006 14.2105 2.20192 14.5943 1.61906Z" fill="#C6AC84"/>
</svg>
